<svg width="40" height="40" viewBox="0 0 40 40" fill="none" xmlns="http://www.w3.org/2000/svg">
<path d="M0.00425553 37.781L6.58225 10.7424L14.6836 22.25L1.20886 38.2673C1.08951 38.3863 0.753093 38.5916 0.394955 38.4295C0.0337921 38.2659 -0.0174424 37.9323 0.00425553 37.781Z" fill="url(#paint0_linear_709_41281)"/>
<path fill-rule="evenodd" clip-rule="evenodd" d="M6.58057 10.7259L19.9929 6.05469L35.4413 28.9566L20.5424 36.969L6.58057 10.7259Z" fill="url(#paint1_linear_709_41281)"/>
<path d="M38.5928 2.33844L20.5063 36.9687L35.6485 28.8604L39.9841 2.95225C40.0057 2.74765 40.0811 2.24159 39.5311 2.0477C39.0944 1.89388 38.6898 2.14465 38.5928 2.33844Z" fill="#FF5A5A"/>
<defs>
<linearGradient id="paint0_linear_709_41281" x1="8.48104" y1="21.1317" x2="-2.54708" y2="41.0148" gradientUnits="userSpaceOnUse">
<stop stop-color="#D23434"/>
<stop offset="1" stop-color="#FF5A5A"/>
</linearGradient>
<linearGradient id="paint1_linear_709_41281" x1="13.5427" y1="8.08185" x2="25.9637" y2="27.2029" gradientUnits="userSpaceOnUse">
<stop stop-color="#FF5A5A"/>
<stop offset="1" stop-color="#DE3232"/>
</linearGradient>
</defs>
</svg>
